<svg width="50" height="50" viewBox="0 0 512 512" fill="none" xmlns="http://www.w3.org/2000/svg">
<g clip-path="url(#clip0_105_37)">
<path d="M256 512C397.385 512 512 397.385 512 256C512 114.615 397.385 0 256 0C114.615 0 0 114.615 0 256C0 397.385 114.615 512 256 512Z" fill="#C1C1C1"/>
</g>
<path d="M226.528 299.203V294.835C226.528 282.761 227.523 273.138 229.511 265.964C231.571 258.791 234.554 253.038 238.46 248.706C242.366 244.303 247.125 240.29 252.736 236.668C257.21 233.827 261.188 230.95 264.668 228.038C268.219 225.055 271.024 221.859 273.084 218.45C275.143 215.041 276.173 211.17 276.173 206.838C276.173 202.648 275.179 198.955 273.19 195.759C271.202 192.562 268.467 190.112 264.987 188.408C261.578 186.632 257.778 185.744 253.588 185.744C249.398 185.744 245.456 186.703 241.763 188.621C238.141 190.538 235.158 193.273 232.814 196.824C230.541 200.304 229.369 204.53 229.298 209.501H180.293C180.506 194.587 183.95 182.371 190.626 172.854C197.374 163.337 206.287 156.305 217.366 151.76C228.446 147.143 240.662 144.835 254.014 144.835C268.645 144.835 281.642 147.108 293.006 151.653C304.44 156.199 313.425 162.911 319.959 171.788C326.493 180.666 329.76 191.533 329.76 204.388C329.76 212.839 328.339 220.297 325.499 226.76C322.658 233.223 318.68 238.94 313.567 243.912C308.524 248.812 302.594 253.287 295.776 257.335C290.449 260.46 286.01 263.727 282.459 267.136C278.979 270.545 276.351 274.452 274.575 278.855C272.8 283.187 271.912 288.514 271.912 294.835V299.203H226.528ZM250.072 369.089C242.402 369.089 235.832 366.391 230.364 360.993C224.966 355.595 222.303 349.061 222.374 341.391C222.303 333.862 224.966 327.435 230.364 322.108C235.832 316.71 242.402 314.011 250.072 314.011C257.388 314.011 263.815 316.71 269.355 322.108C274.895 327.435 277.7 333.862 277.771 341.391C277.7 346.504 276.351 351.156 273.723 355.347C271.166 359.537 267.793 362.875 263.602 365.361C259.483 367.847 254.973 369.089 250.072 369.089Z" fill="white"/>
<defs>
<clipPath id="clip0_105_37">
<rect width="512" height="512" fill="white"/>
</clipPath>
</defs>
</svg>
